<svg width="725" height="725" viewBox="0 0 725 725" fill="none" xmlns="http://www.w3.org/2000/svg">
<circle cx="362" cy="363" r="190" fill="url(#paint0_linear_120_28566)"/>
<path d="M132.843 495.16C158.695 539.937 197.08 576.172 243.27 599.404C289.46 622.635 341.438 631.847 392.798 625.904C444.159 619.961 492.659 599.124 532.324 565.959C571.989 532.794 601.086 488.75 616.029 439.254C630.973 389.757 631.112 336.97 616.427 287.396C601.743 237.822 572.877 193.627 533.386 160.254C493.895 126.882 445.505 105.791 394.176 99.5795C342.847 93.3681 290.823 102.308 244.512 125.297L245.69 127.67C291.538 104.911 343.042 96.061 393.858 102.21C444.673 108.36 492.58 129.24 531.676 162.278C570.771 195.317 599.349 239.07 613.886 288.149C628.424 337.227 628.287 389.486 613.493 438.488C598.698 487.489 569.892 531.093 530.624 563.926C491.356 596.759 443.341 617.388 392.494 623.272C341.647 629.155 290.189 620.035 244.461 597.036C198.733 574.037 160.731 538.164 135.138 493.835L132.843 495.16Z" fill="#1A15D3"/>
<circle cx="121" cy="468" r="30" fill="#1A15D3"/>
<path d="M124.75 460.5C124.75 458.429 123.071 456.75 121 456.75C118.929 456.75 117.25 458.429 117.25 460.5V466.75C117.25 468.821 118.929 470.5 121 470.5C123.071 470.5 124.75 468.821 124.75 466.75V460.5Z" stroke="white" stroke-width="2" stroke-linejoin="round"/>
<path d="M112.25 466.75C112.25 469.071 113.172 471.296 114.813 472.937C116.454 474.578 118.679 475.5 121 475.5C123.321 475.5 125.546 474.578 127.187 472.937C128.828 471.296 129.75 469.071 129.75 466.75" stroke="white" stroke-width="2" stroke-linecap="round" stroke-linejoin="round"/>
<path d="M121 479.25V476.75" stroke="white" stroke-width="2" stroke-linecap="round" stroke-linejoin="round"/>
<circle cx="225" cy="141" r="25" fill="#FFE600"/>
<path d="M222.548 145.476L223.033 146.445L222.548 145.476ZM223.033 135.555L230.047 139.062L229.078 141L222.064 137.493L223.033 135.555ZM230.047 142.938L223.033 146.445L222.064 144.507L229.078 141L230.047 142.938ZM221.75 137.687V144.313H219.583V137.687H221.75ZM223.033 146.445C221.448 147.237 219.583 146.085 219.583 144.313H221.75C221.75 144.474 221.919 144.579 222.064 144.507L223.033 146.445ZM230.047 139.062C231.644 139.861 231.644 142.139 230.047 142.938L229.078 141L230.047 139.062ZM222.064 137.493C221.919 137.421 221.75 137.526 221.75 137.687H219.583C219.583 135.915 221.448 134.763 223.033 135.555L222.064 137.493Z" fill="white"/>
<path d="M225 150.75C230.385 150.75 234.75 146.385 234.75 141C234.75 135.615 230.385 131.25 225 131.25C219.615 131.25 215.25 135.615 215.25 141C215.25 146.385 219.615 150.75 225 150.75Z" stroke="white" stroke-width="2"/>
<path d="M421.785 585.456C377.845 597.229 331.401 595.709 288.325 581.087C245.25 566.465 207.477 539.397 179.785 503.308C152.093 467.218 135.724 423.728 132.749 378.335C129.774 332.943 140.326 287.688 163.07 248.293C185.815 208.898 219.731 177.132 260.53 157.012C301.328 136.892 347.177 129.323 392.277 135.26C437.378 141.198 479.705 160.376 513.906 190.37C548.107 220.363 572.646 259.825 584.419 303.764L582.198 304.36C570.542 260.859 546.248 221.792 512.389 192.099C478.53 162.405 436.627 143.419 391.977 137.541C347.328 131.663 301.938 139.156 261.547 159.075C221.157 178.993 187.58 210.442 165.062 249.443C142.545 288.444 132.098 333.247 135.044 378.185C137.989 423.123 154.194 466.179 181.61 501.908C209.025 537.636 246.42 564.433 289.065 578.909C331.709 593.385 377.689 594.89 421.189 583.234L421.785 585.456Z" fill="#FF9900"/>
<circle cx="586" cy="333" r="30" fill="#FF2048"/>
<path d="M596 335.5C596 334.119 594.881 333 593.5 333C592.119 333 591 334.119 591 335.5V339.25C591 340.631 592.119 341.75 593.5 341.75C594.881 341.75 596 340.631 596 339.25V335.5Z" stroke="white" stroke-width="2" stroke-linejoin="round"/>
<path d="M581 335.5C581 334.119 579.881 333 578.5 333C577.119 333 576 334.119 576 335.5V339.25C576 340.631 577.119 341.75 578.5 341.75C579.881 341.75 581 340.631 581 339.25V335.5Z" stroke="white" stroke-width="2" stroke-linejoin="round"/>
<path d="M576 334.25V338" stroke="white" stroke-width="2" stroke-linecap="round" stroke-linejoin="round"/>
<path d="M596 334.25V338" stroke="white" stroke-width="2" stroke-linecap="round" stroke-linejoin="round"/>
<path d="M596 334.25C596 331.266 594.946 328.405 593.071 326.295C591.196 324.185 588.652 323 586 323C583.348 323 580.804 324.185 578.929 326.295C577.054 328.405 576 331.266 576 334.25" stroke="white" stroke-width="2" stroke-linecap="round" stroke-linejoin="round"/>
<circle cx="436" cy="575" r="20" fill="#4D0FFF"/>
<path d="M443.326 568.778C444 569.787 444 571.191 444 574C444 576.809 444 578.213 443.326 579.222C443.034 579.659 442.659 580.034 442.222 580.326C441.341 580.915 440.158 580.989 438 580.999V581L436.894 583.211C436.526 583.948 435.474 583.948 435.106 583.211L434 581V580.999C431.842 580.989 430.659 580.915 429.778 580.326C429.341 580.034 428.966 579.659 428.674 579.222C428 578.213 428 576.809 428 574C428 571.191 428 569.787 428.674 568.778C428.966 568.341 429.341 567.966 429.778 567.674C430.787 567 432.191 567 435 567H437C439.809 567 441.213 567 442.222 567.674C442.659 567.966 443.034 568.341 443.326 568.778Z" fill="#7E869E" fill-opacity="0.25" stroke="white" stroke-width="1.2" stroke-linecap="round" stroke-linejoin="round"/>
<path d="M433 572H439" stroke="white" stroke-width="1.2" stroke-linecap="round" stroke-linejoin="round"/>
<path d="M433 576H436" stroke="white" stroke-width="1.2" stroke-linecap="round" stroke-linejoin="round"/>
<defs>
<linearGradient id="paint0_linear_120_28566" x1="500.5" y1="234.5" x2="206" y2="469.5" gradientUnits="userSpaceOnUse">
<stop offset="0.385417" stop-color="#7B61FF"/>
<stop offset="1" stop-color="#FE00C6" stop-opacity="0.84"/>
</linearGradient>
</defs>
</svg>
